<?xml version="1.0" standalone="no"?><!DOCTYPE svg PUBLIC "-//W3C//DTD SVG 1.1//EN" "http://www.w3.org/Graphics/SVG/1.1/DTD/svg11.dtd"><svg t="1700919212941" class="icon" viewBox="0 0 1024 1024" version="1.1" xmlns="http://www.w3.org/2000/svg" p-id="38969" xmlns:xlink="http://www.w3.org/1999/xlink" width="16" height="16"><path d="M0 0h1024v1024H0z" fill="#D8D8D8" fill-opacity="0" p-id="38970"></path><path d="M661.333333 277.333333v314.112a150.485333 150.485333 0 0 0-78.293333-22.442666c-86.357333 0-167.466667 73.216-167.466667 163.498666C415.573333 822.784 496.64 896 583.04 896s156.373333-73.216 156.373333-163.498667V323.498667h74.837334a81.749333 81.749333 0 1 0 0-163.498667h-35.584A117.333333 117.333333 0 0 0 661.333333 277.333333z" fill="#4080FF" p-id="38971" data-spm-anchor-id="a313x.search_index.0.i53.790d3a81ecDmnE" class="selected"></path><path d="M167.552 213.674667h347.562667a39.552 39.552 0 1 1 0 79.061333H167.552a39.552 39.552 0 1 1 0-79.061333zM167.552 384.341333h347.562667a39.552 39.552 0 1 1 0 79.061334H167.552a39.552 39.552 0 1 1 0-79.061334zM167.552 555.008h134.229333a39.552 39.552 0 1 1 0 79.061333H167.552a39.552 39.552 0 0 1 0-79.061333z" fill="#6AA1FF" p-id="38972" data-spm-anchor-id="a313x.search_index.0.i57.790d3a81ecDmnE" class=""></path></svg>