<?xml version="1.0" standalone="no"?><!DOCTYPE svg PUBLIC "-//W3C//DTD SVG 1.1//EN" "http://www.w3.org/Graphics/SVG/1.1/DTD/svg11.dtd"><svg t="1704206765838" class="icon" viewBox="0 0 1510 1024" version="1.1" xmlns="http://www.w3.org/2000/svg" p-id="4603" xmlns:xlink="http://www.w3.org/1999/xlink" width="23.59375" height="16"><path d="M0 819.7888C0 932.5312 338.1504 1024 755.2 1024S1510.4 932.5312 1510.4 819.7888c0-112.8448-338.1504-204.2368-755.2-204.2368S0 706.944 0 819.7888z" fill="#F7F8FA" p-id="4604"></path><path d="M202.9568 339.9168c0-7.1168 5.5808-12.8 12.3648-12.8h1104.64c6.8096 0 12.288 5.6832 12.288 12.8v467.2768a63.1552 63.1552 0 0 1-61.824 64.3328H264.8832a60.7232 60.7232 0 0 1-43.776-18.7904 65.664 65.664 0 0 1-18.1504-45.5424V339.9168z" fill="#FEFFFF" p-id="4605"></path><path d="M178.2272 339.9168v467.2768c0 49.7152 38.7072 90.1632 86.656 90.1632h1005.5424c47.872 0 86.656-40.448 86.656-90.1632V339.9168a38.0928 38.0928 0 0 0-10.5984-27.0336 37.6576 37.6576 0 0 0-26.5216-11.5968H215.2192c-9.984 0.1792-19.5328 4.352-26.496 11.5968-6.9632 7.2448-10.752 16.9728-10.5984 27.0336h0.1024z m24.7296 0c0-7.1168 5.5808-12.8 12.3648-12.8h1104.64c6.8096 0 12.288 5.6832 12.288 12.8v467.2768a63.1552 63.1552 0 0 1-61.824 64.3328H264.8832a60.7232 60.7232 0 0 1-43.776-18.7904 65.664 65.664 0 0 1-18.1504-45.5424V339.9168z" fill="#E5E6EB" p-id="4606"></path><path d="M474.8288 0h591.0528l272.64 322.944H1061.0176a50.1248 50.1248 0 0 0-48.6912 42.7008l-10.1888 61.1072a50.1248 50.1248 0 0 1-48.7168 42.7008h-369.664a50.1248 50.1248 0 0 1-48.9984-43.8272l-8.4224-58.8544c-3.1744-24.832-24.064-43.52-48.9728-43.8272H182.1952L474.8288 0z" fill="#FEFFFF" p-id="4607"></path><path d="M474.8288 0h607.9232l272.64 322.944H1077.9136a50.1248 50.1248 0 0 0-48.7168 42.7008l-10.1888 61.1072a50.1248 50.1248 0 0 1-48.7168 42.7008h-386.56a50.1248 50.1248 0 0 1-48.9728-43.8272l-8.4224-58.8544c-3.1744-24.832-24.064-43.52-48.9728-43.8272H182.1952L474.8288 0z m10.752 25.728L239.3856 297.216h238.0032c36.8128 0 67.968 28.0064 73.4464 65.8688l8.3968 58.8288c1.8944 12.544 12.288 21.8368 24.5504 21.8368h386.5344a25.0624 25.0624 0 0 0 24.3456-21.376l10.112-61.1072a75.1872 75.1872 0 0 1 73.1648-64.0512h222.7712L1071.5136 25.8048H485.5808v-0.0768z" fill="#E5E6EB" p-id="4608"></path></svg>